<svg height="1024" preserveAspectRatio="none" viewBox="0 0 1024 1024" width="1024" xmlns="http://www.w3.org/2000/svg"><path d="m969.6 351.25q-8.6-20.85-19.4-40.85-6.1-11.35-12.9-22.4-29.35-47.55-71.55-89.8-138.25-138.25-333.8-138.25-195.5 0-333.75 138.25-138.25 138.25-138.25 333.75 0 195.55 138.25 333.8 138.25 138.2 333.75 138.2 195.55 0 333.8-138.2 76.15-76.2 110.35-169.75 27.85-76.25 27.85-164.05 0-67.35-16.4-127.95-1.85-6.85-3.9-13.6-6.15-19.95-14.05-39.15z" fill-opacity=".098039"/><path d="m969.7 392q-1.75-6.85-3.65-13.6-1.52421875-5.28554687-3.2-10.55-2.47128906-7.946875-5.25-15.8-9.75-27.55-23.15-53.65-5.8-11.35-12.3-22.4-30.65-52-76.35-97.75-109-109-253.65-132.05-24.5-3.9-50.05-5.35-14.9-.85-30.1-.85-14.1 0-27.9.75-177.55 9.2-305.85 137.5-138.25 138.25-138.25 333.75 0 195.55 138.25 333.8 84.79003906 84.75703125 191.1 117.55 54.53808594 16.81308594 114.75 19.95.2 0 .4 0 12.15.6 24.5.7 1.5 0 3 0 15.25 0 30.1-.8 3.5-.2 6.95-.45 30.05-2.15 58.7-7.7 11.8-2.3 23.4-5.15 120.6-30.05 214.65-124.1 72.9-72.95 107.35-161.8 27.75-71.6 30.55-153.5.3-9.2.3-18.5 0-1 0-2 0-.5 0-1-.35-61.3-14.3-117z" fill="#1d1d1d"/><path d="m983.35 538.9-302.35-302.05q-176.11933594 134.47109375-260.9 305.25h24v104.05h-66.1q-22.31074219 70.11464844-31 145.65l190.3 191.65q2.39902344-.12070312 4.8-.25 3.5-.2 6.95-.45 30.05-2.15 58.7-7.7 11.8-2.3 23.4-5.15 120.6-30.05 214.65-124.1 72.9-72.95 107.35-161.8 26.32304688-67.91816406 30.2-145.1z" fill-opacity=".2"/><g transform="matrix(.24185181 0 0 .24185181 311.45 211.15)"><path d="m800.7 2245.5q32.75-77.45 32.75-162.15v-416.65h-416.65q-84.7 0-162.15 32.75-74.75 31.65-132.4 89.35-57.7 57.65-89.35 132.4-32.75 77.45-32.75 162.15 0 84.7 32.75 162.15 31.65 74.75 89.35 132.45 57.65 57.65 132.4 89.3 77.4 32.75 162.15 32.75 84.7 0 162.15-32.75 74.75-31.65 132.45-89.3 57.65-57.7 89.3-132.45z" fill="#0acf83"/><path d="m254.65 866.1q-74.75 31.65-132.4 89.35-57.7 57.65-89.35 132.4-32.75 77.45-32.75 162.15 0 84.7 32.75 162.15 31.65 74.75 89.35 132.45 57.65 57.7 132.4 89.35 77.45 32.75 162.15 32.75h416.65v-833.35h-416.65q-84.7 0-162.15 32.75z" fill="#a259ff"/><path d="m254.65 32.75q-74.75 31.65-132.4 89.35-57.7 57.7-89.35 132.45-32.75 77.45-32.75 162.15 0 84.7 32.75 162.15 31.65 74.75 89.35 132.45 57.65 57.65 132.4 89.3 77.4 32.75 162.15 32.75h416.65v-833.35h-416.65q-84.7 0-162.15 32.75z" fill="#f24e1e"/><path d="m1544.75 122.1q-57.7-57.7-132.45-89.35-77.45-32.75-162.15-32.75h-416.7v833.35h416.7q84.7 0 162.15-32.75 74.75-31.65 132.45-89.3 57.65-57.7 89.3-132.45 32.75-77.45 32.75-162.15 0-84.75-32.75-162.15-31.65-74.75-89.3-132.45z" fill="#ff7262"/><path d="m1544.75 955.45q-57.7-57.7-132.45-89.35-77.45-32.75-162.15-32.75-84.7 0-162.15 32.75-74.75 31.65-132.45 89.35-57.7 57.65-89.35 132.4-32.75 77.45-32.75 162.15 0 84.7 32.75 162.15 31.65 74.75 89.35 132.45 57.7 57.7 132.45 89.35 77.45 32.75 162.15 32.75 84.7 0 162.15-32.75 74.75-31.65 132.45-89.35 57.65-57.7 89.3-132.45 32.75-77.45 32.75-162.15 0-84.75-32.75-162.15-31.65-74.75-89.3-132.4z" fill="#1abcfe"/></g></svg>